<svg xmlns="http://www.w3.org/2000/svg" viewBox="0 0 64 64" role="img" aria-label="Re:Memory favicon">
  <rect width="64" height="64" rx="18" fill="#f6efe6" />
  <path d="M17 17.5c0-2.5 2-4.5 4.5-4.5H32v38H21.5a4.5 4.5 0 0 0-4.5 4.5z" fill="#d9654f" />
  <path d="M47 17.5c0-2.5-2-4.5-4.5-4.5H32v38h10.5a4.5 4.5 0 0 1 4.5 4.5z" fill="#f08a5d" />
  <path d="M32 13v38" stroke="#fffaf4" stroke-width="2.5" />
  <path d="M22 24h7.5c3.6 0 6.5 2.9 6.5 6.5S33.1 37 29.5 37H22z" fill="#fffaf4" />
  <path d="M22 24h7.2c2.4 0 4.3 1.9 4.3 4.3s-1.9 4.3-4.3 4.3H26v4.4h-4z" fill="#8b3c32" />
  <circle cx="40.5" cy="28" r="2.2" fill="#fffaf4" />
  <circle cx="40.5" cy="36" r="2.2" fill="#fffaf4" />
</svg>
